2014007_C5_04_grf
version=1
nRows=37
nColumns=19
inDegrees=no
endheader
time	ground_force_1_vx	ground_force_1_vy	ground_force_1_vz	ground_force_1_px	ground_force_1_py	ground_force_1_pz	ground_force_1_mx	ground_force_1_my	ground_force_1_mz	ground_force_2_vx	ground_force_2_vy	ground_force_2_vz	ground_force_2_px	ground_force_2_py	ground_force_2_pz	ground_force_2_mx	ground_force_2_my	ground_force_2_mz
      0.78500000	    -27.36844588	    497.69386649	    -10.55608112	     -0.22006357	     -0.00200000	      0.27504561	      0.00000000	      0.06212633	      0.00000000	      0.00000000	      0.00000000	      0.00000000	      0.00000000	      0.00000000	      0.00000000	      0.00000000	      0.00000000	      0.00000000
      0.78600000	    -26.93028376	    494.91804838	    -10.41529924	     -0.21959936	     -0.00200000	      0.27507477	      0.00000000	      0.06537729	      0.00000000	      0.00000000	      0.00000000	      0.00000000	      0.00000000	      0.00000000	      0.00000000	      0.00000000	      0.00000000	      0.00000000
      0.78700000	    -26.49783343	    492.19211936	    -10.27503926	     -0.21913400	     -0.00200000	      0.27510470	      0.00000000	      0.06884572	      0.00000000	      0.00000000	      0.00000000	      0.00000000	      0.00000000	      0.00000000	      0.00000000	      0.00000000	      0.00000000	      0.00000000
      0.78800000	    -26.06980503	    489.50731754	    -10.13520174	     -0.21866787	     -0.00200000	      0.27513524	      0.00000000	      0.07247347	      0.00000000	      0.00000000	      0.00000000	      0.00000000	      0.00000000	      0.00000000	      0.00000000	      0.00000000	      0.00000000	      0.00000000
      0.78900000	    -25.64711776	    486.87531054	     -9.99590904	     -0.21820103	     -0.00200000	      0.27516655	      0.00000000	      0.07628305	      0.00000000	      0.00000000	      0.00000000	      0.00000000	      0.00000000	      0.00000000	      0.00000000	      0.00000000	      0.00000000	      0.00000000
      0.79000000	    -25.22856928	    484.28663611	     -9.85707454	     -0.21773379	     -0.00200000	      0.27519847	      0.00000000	      0.08022576	      0.00000000	      0.00000000	      0.00000000	      0.00000000	      0.00000000	      0.00000000	      0.00000000	      0.00000000	      0.00000000	      0.00000000
      0.79100000	    -24.81503598	    481.75348341	     -9.71885584	     -0.21726630	     -0.00200000	      0.27523112	      0.00000000	      0.08431882	      0.00000000	      0.00000000	      0.00000000	      0.00000000	      0.00000000	      0.00000000	      0.00000000	      0.00000000	      0.00000000	      0.00000000
      0.79200000	    -24.40539375	    479.26571965	     -9.58116800	     -0.21679881	     -0.00200000	      0.27526433	      0.00000000	      0.08851973	      0.00000000	      0.00000000	      0.00000000	      0.00000000	      0.00000000	      0.00000000	      0.00000000	      0.00000000	      0.00000000	      0.00000000
      0.79300000	    -24.00047146	    476.83589160	     -9.44419261	     -0.21633158	     -0.00200000	      0.27529821	      0.00000000	      0.09284222	      0.00000000	      0.00000000	      0.00000000	      0.00000000	      0.00000000	      0.00000000	      0.00000000	      0.00000000	      0.00000000	      0.00000000
      0.79400000	    -23.59921858	    474.45330024	     -9.30782743	     -0.21586476	     -0.00200000	      0.27533259	      0.00000000	      0.09725287	      0.00000000	      0.00000000	      0.00000000	      0.00000000	      0.00000000	      0.00000000	      0.00000000	      0.00000000	      0.00000000	      0.00000000
      0.79500000	    -23.20243418	    472.13077545	     -9.17226914	     -0.21539874	     -0.00200000	      0.27536755	      0.00000000	      0.10176522	      0.00000000	      0.00000000	      0.00000000	      0.00000000	      0.00000000	      0.00000000	      0.00000000	      0.00000000	      0.00000000	      0.00000000
      0.79600000	    -22.80913293	    469.85706687	     -9.03739147	     -0.21493354	     -0.00200000	      0.27540297	      0.00000000	      0.10635306	      0.00000000	      0.00000000	      0.00000000	      0.00000000	      0.00000000	      0.00000000	      0.00000000	      0.00000000	      0.00000000	      0.00000000
      0.79700000	    -22.42007013	    467.64516830	     -8.90340088	     -0.21446963	     -0.00200000	      0.27543889	      0.00000000	      0.11102891	      0.00000000	      0.00000000	      0.00000000	      0.00000000	      0.00000000	      0.00000000	      0.00000000	      0.00000000	      0.00000000	      0.00000000
      0.79800000	    -22.03430608	    465.48324823	     -8.77014566	     -0.21400695	     -0.00200000	      0.27547520	      0.00000000	      0.11577094	      0.00000000	      0.00000000	      0.00000000	      0.00000000	      0.00000000	      0.00000000	      0.00000000	      0.00000000	      0.00000000	      0.00000000
      0.79900000	    -21.65255882	    463.38447928	     -8.63783984	     -0.21354606	     -0.00200000	      0.27551192	      0.00000000	      0.12058965	      0.00000000	      0.00000000	      0.00000000	      0.00000000	      0.00000000	      0.00000000	      0.00000000	      0.00000000	      0.00000000	      0.00000000
      0.80000000	    -21.27394639	    461.33661270	     -8.50632191	     -0.21308680	     -0.00200000	      0.27554895	      0.00000000	      0.12546486	      0.00000000	      0.00000000	      0.00000000	      0.00000000	      0.00000000	      0.00000000	      0.00000000	      0.00000000	      0.00000000	      0.00000000
      0.80100000	    -20.89917380	    459.35295522	     -8.37583439	     -0.21262983	     -0.00200000	      0.27558628	      0.00000000	      0.13040603	      0.00000000	      0.00000000	      0.00000000	      0.00000000	      0.00000000	      0.00000000	      0.00000000	      0.00000000	      0.00000000	      0.00000000
      0.80200000	    -20.52741870	    457.42100477	     -8.24621525	     -0.21217488	     -0.00200000	      0.27562382	      0.00000000	      0.13539741	      0.00000000	      0.00000000	      0.00000000	      0.00000000	      0.00000000	      0.00000000	      0.00000000	      0.00000000	      0.00000000	      0.00000000
      0.80300000	    -20.15937027	    455.55414259	     -8.11774051	     -0.21172267	     -0.00200000	      0.27566155	      0.00000000	      0.14044970	      0.00000000	      0.00000000	      0.00000000	      0.00000000	      0.00000000	      0.00000000	      0.00000000	      0.00000000	      0.00000000	      0.00000000
      0.80400000	    -19.79423314	    453.73961329	     -7.99022689	     -0.21127284	     -0.00200000	      0.27569941	      0.00000000	      0.14555009	      0.00000000	      0.00000000	      0.00000000	      0.00000000	      0.00000000	      0.00000000	      0.00000000	      0.00000000	      0.00000000	      0.00000000
      0.80500000	    -19.43265833	    451.99063420	     -7.86396582	     -0.21082617	     -0.00200000	      0.27573739	      0.00000000	      0.15071066	      0.00000000	      0.00000000	      0.00000000	      0.00000000	      0.00000000	      0.00000000	      0.00000000	      0.00000000	      0.00000000	      0.00000000
      0.80600000	    -19.07387376	    450.29419661	     -7.73873907	     -0.21038217	     -0.00200000	      0.27577546	      0.00000000	      0.15591982	      0.00000000	      0.00000000	      0.00000000	      0.00000000	      0.00000000	      0.00000000	      0.00000000	      0.00000000	      0.00000000	      0.00000000
      0.80700000	    -18.71849597	    448.66345823	     -7.61483554	     -0.20994169	     -0.00200000	      0.27581359	      0.00000000	      0.16118950	      0.00000000	      0.00000000	      0.00000000	      0.00000000	      0.00000000	      0.00000000	      0.00000000	      0.00000000	      0.00000000	      0.00000000
      0.80800000	    -18.36578175	    447.08514214	     -7.49200881	     -0.20950416	     -0.00200000	      0.27585179	      0.00000000	      0.16650698	      0.00000000	      0.00000000	      0.00000000	      0.00000000	      0.00000000	      0.00000000	      0.00000000	      0.00000000	      0.00000000	      0.00000000
      0.80900000	    -18.01630761	    445.57224214	     -7.37054888	     -0.20907047	     -0.00200000	      0.27589006	      0.00000000	      0.17188237	      0.00000000	      0.00000000	      0.00000000	      0.00000000	      0.00000000	      0.00000000	      0.00000000	      0.00000000	      0.00000000	      0.00000000
      0.81000000	    -17.66934991	    444.11149621	     -7.25019760	     -0.20863997	     -0.00200000	      0.27592838	      0.00000000	      0.17730260	      0.00000000	      0.00000000	      0.00000000	      0.00000000	      0.00000000	      0.00000000	      0.00000000	      0.00000000	      0.00000000	      0.00000000
      0.81100000	    -17.32542366	    442.71561503	     -7.13124946	     -0.20821359	     -0.00200000	      0.27596676	      0.00000000	      0.18277644	      0.00000000	      0.00000000	      0.00000000	      0.00000000	      0.00000000	      0.00000000	      0.00000000	      0.00000000	      0.00000000	      0.00000000
      0.81200000	    -16.98382199	    441.37135148	     -7.01343175	     -0.20779062	     -0.00200000	      0.27600520	      0.00000000	      0.18829145	      0.00000000	      0.00000000	      0.00000000	      0.00000000	      0.00000000	      0.00000000	      0.00000000	      0.00000000	      0.00000000	      0.00000000
      0.81300000	    -16.64500218	    440.09120762	     -6.89703170	     -0.20737206	     -0.00200000	      0.27604374	      0.00000000	      0.19385593	      0.00000000	      0.00000000	      0.00000000	      0.00000000	      0.00000000	      0.00000000	      0.00000000	      0.00000000	      0.00000000	      0.00000000
      0.81400000	    -16.30831510	    438.86199594	     -6.78177048	     -0.20695711	     -0.00200000	      0.27608237	      0.00000000	      0.19945791	      0.00000000	      0.00000000	      0.00000000	      0.00000000	      0.00000000	      0.00000000	      0.00000000	      0.00000000	      0.00000000	      0.00000000
      0.81500000	    -15.97417239	    437.69608438	     -6.66794032	     -0.20654681	     -0.00200000	      0.27612112	      0.00000000	      0.20510472	      0.00000000	      0.00000000	      0.00000000	      0.00000000	      0.00000000	      0.00000000	      0.00000000	      0.00000000	      0.00000000	      0.00000000
      0.81600000	    -15.64196683	    436.58041954	     -6.55526072	     -0.20614031	     -0.00200000	      0.27615997	      0.00000000	      0.21078584	      0.00000000	      0.00000000	      0.00000000	      0.00000000	      0.00000000	      0.00000000	      0.00000000	      0.00000000	      0.00000000	      0.00000000
      0.81700000	    -15.31205792	    435.52704155	     -6.44402085	     -0.20573866	     -0.00200000	      0.27619896	      0.00000000	      0.21650624	      0.00000000	      0.00000000	      0.00000000	      0.00000000	      0.00000000	      0.00000000	      0.00000000	      0.00000000	      0.00000000	      0.00000000
      0.81800000	    -14.98388685	    434.52307582	     -6.33393042	     -0.20534092	     -0.00200000	      0.27623805	      0.00000000	      0.22225458	      0.00000000	      0.00000000	      0.00000000	      0.00000000	      0.00000000	      0.00000000	      0.00000000	      0.00000000	      0.00000000	      0.00000000
      0.81900000	    -14.65775538	    433.58030915	     -6.22526435	     -0.20494816	     -0.00200000	      0.27627728	      0.00000000	      0.22803410	      0.00000000	      0.00000000	      0.00000000	      0.00000000	      0.00000000	      0.00000000	      0.00000000	      0.00000000	      0.00000000	      0.00000000
      0.82000000	    -14.33314756	    432.68600106	     -6.11772761	     -0.20455940	     -0.00200000	      0.27631661	      0.00000000	      0.23383535	      0.00000000	      0.00000000	      0.00000000	      0.00000000	      0.00000000	      0.00000000	      0.00000000	      0.00000000	      0.00000000	      0.00000000
      0.82100000	    -14.01031669	    431.85158074	     -6.01159511	     -0.20417567	     -0.00200000	      0.27635604	      0.00000000	      0.23966058	      0.00000000	      0.00000000	      0.00000000	      0.00000000	      0.00000000	      0.00000000	      0.00000000	      0.00000000	      0.00000000	      0.00000000
